<?xml version="1.0" standalone="yes"?>
<svg xmlns="http://www.w3.org/2000/svg" width="248" height="45">
<path style="fill:#010101; stroke:none;" d="M0 0L0 36C13.6433 35.9518 35.9518 13.6433 36 0L0 0z"/>
<path style="fill:#ffffff; stroke:none;" d="M36 0C35.8523 12.5078 12.5078 35.8523 0 36L0 45L9 45C9.19041 39.1322 16.1092 27.0556 23 27.0556C30.3809 27.0556 35.929 38.9873 36 45L46 45L46 36C36.3182 35.8857 32.3275 28.1616 25 23L25 22C32.5578 16.6762 36.0657 10.0351 46 10L46 0L36 0z"/>
<path style="fill:#010101; stroke:none;" d="M46 0L46 10C35.9842 10.0077 31.8204 15.1796 25 22L25 23C31.5841 29.5841 36.179 35.9653 46 36L46 45L51 45L51 37C54.5427 39.0784 53.8681 41.2768 53 45C56.9871 44.1456 56 40.5105 56 37L62 45L62 37L64 37L65 45L66 37L68 39L69 39L71 37L70 45L72 45L75 37L75 45L76 45L76 37C79.6082 38.9952 79.808 41.0888 79 45C82.0404 42.8439 81.7448 40.466 81 37L84 45L85 45L85 37L90 37L92 45L92 37L86 35L87 29C92.3716 29.9972 97.6639 31.1333 101 26C89.6403 30.8122 77.0256 18.1725 87.2284 8.27855C92.4015 3.26204 102.361 6.13264 109 6C109 16.5335 112.423 31.7646 100 36L100 37L102 45L104 45L104 37L108 37L108 45L109 45C109.125 41.1224 109.502 38.9282 113 37L112 45C116.255 44.0882 114.655 40.4667 114 37L118 37L117 45L118 45L122 37L123 45L124 45L124 37L128 37C128 40.5105 127.013 44.1456 131 45L129 37L134 37L132 45L138 45C137.623 41.2083 137.554 38.9874 141 37L143 45L143 37C146.608 38.9952 146.808 41.0888 146 45L148 37L150 37L152 45L153 45L153 37L154 37L154 42L155 42L155 37L157 37L156 45C160.255 44.0882 158.655 40.4667 158 37L162 37L161 45L163 45L166 37C165.255 40.466 164.96 42.8439 168 45L168 37L170 37L170 45L172 37L177 37L177 45L178 45L179 37L181 37L181 45L186 45L186 37L190 40L191 40L192 37L194 37L194 45L196 37L205 45L205 37L208 37L206 45C209.76 44.1943 209.636 40.4639 210 37L213 43L214 43L214 37L218 37L219 45L220 45L220 37L225 37L225 45L226 45L226 37L230 37L228 42L228 43L230 45L231 45L231 37L235 45L236 45L237 37L239 37L240 38L239 45L248 45L247 12C239.351 14.6646 240 21.0292 240 28L232 28L232 6L239 8L240 8L248 5L248 0L129 0L129 1C132.069 3.52982 131.77 5.25231 131 9L121 7C123.779 11.5588 130.183 11.564 132.254 17.0154C137.238 30.1366 110.244 34.138 114 18L126 21C120.271 14.7724 107.075 10.3994 118 1L118 0L73 0L83 28L67.9606 23.0779L52 28L62 0L46 0z"/>
<path style="fill:#ffffff; stroke:none;" d="M52 28L67.9606 23.2068L83 28C81.2464 20.6001 74.9698 -7.72129 62.51 1.02778C56.9409 4.93837 53.7584 21.5578 52 28M126 21L114 18C107.688 35.8508 142.457 29.2691 131.258 14.2245C128.701 10.7901 123.911 10.1619 121 7L131 9C135.815 -7.87263 102.767 1.5477 116.228 14.7222C118.954 17.3893 122.959 18.6713 126 21z"/>
<path style="fill:#010101; stroke:none;" d="M39 2L39 7L44 7L44 2L39 2z"/>
<path style="fill:#ffffff; stroke:none;" d="M101 26C96.6831 30.5227 92.7771 29.7295 87 29L86 35L92 37C90.8935 40.8854 90.8471 43.6215 95 45L95 37C99.2584 38.3492 99.5475 40.8324 99 45C102.846 44.1759 103.243 38.8683 100 37L100 36C112.863 33.3972 109 15.9333 109 6C102.55 6.03489 92.5456 2.96384 87.2284 7.51389C76.6075 16.6024 88.8303 32.4945 101 26M157 28L157 21L145 21L145 20L159 20C158.978 17.3358 159.092 14.5348 158.106 12.0046C149.11 -11.0807 118.777 25.4992 146 28.814C149.701 29.2648 153.346 28.4617 157 28M169 8L162 6L162 28L171 28C171 21.5926 169.827 13.8426 178 13L178 10L179 10C181.402 14.558 182.554 23.8627 186.702 26.9722C197.34 34.9458 202.566 12.1943 204 6L195 6L192 19L191 19L188 6L169 8M227 21L214 21L214 20L229 20C228.897 15.1526 228.313 9.80411 223.892 6.85802C216.211 1.73926 205.657 6.97169 205.109 16C204.307 29.2054 226.536 35.1506 227 21M240 8L239 8L232 6L232 28L240 28C240.001 21.3421 239.74 13.8491 248 13L248 5L240 8z"/>
<path style="fill:#010101; stroke:none;" d="M67 8L65 16L69 16L67 8M144 14L151 14C148.304 11.3553 146.696 11.3553 144 14M214 14L221 14C218.401 11.3761 216.186 10.6765 214 14M95.3025 13.0864C91.8228 15.0919 93.3268 22.5873 97.7901 20.7438C102.367 18.8535 99.9713 10.3955 95.3025 13.0864M9 45L36 45C35.9774 38.6016 31.1186 26.2068 23 26.2068C15.3832 26.2068 9.0745 38.692 9 45z"/>
<path style="fill:#ffffff; stroke:none;" d="M51 37L51 45C54.6223 42.595 55.7034 38.5777 51 37M56 37L56 45L60 45C59.7839 41.0992 60.0965 38.3282 56 37M62 37C60.8935 40.8854 60.847 43.6215 65 45L64 37L62 37M66 37L67 45L70 45L71 37L69 39L68 39L66 37M72 37C72 40.5105 71.0129 44.1456 75 45L75 37L72 37M76 37L76 45C80.7735 43.4155 80.7735 38.5845 76 37M81 37L81 45C84.9871 44.1456 84 40.5105 84 37L81 37M85 37L85 45L90 45L90 37L85 37z"/>
<path style="fill:#010101; stroke:none;" d="M95 37L95 45C100.807 43.9916 100.807 38.0084 95 37z"/>
<path style="fill:#ffffff; stroke:none;" d="M104 37L104 45L105 45L106 43L108 45L108 37L104 37M109 45C113.046 43.6571 112.953 40.9346 113 37C108.954 38.3429 109.047 41.0654 109 45M114 37L115 45L117 45L118 37L114 37M120 37L118 45L123 45L122 37L120 37M124 37L124 45L128 45L128 37L124 37M129 37L131 45L132 45L134 37L129 37M137 44L141 45L141 37C137.288 38.2279 137.317 40.3834 137 44M143 37L143 45C147.773 43.4155 147.773 38.5845 143 37M148 37L148 45L152 45L150 37L148 37M153 37L153 45C157.046 43.6571 156.953 40.9346 157 37L155 37L155 42L154 42L153 37M158 37L159 45L161 45L162 37L158 37M163 37C163 40.5105 162.013 44.1456 166 45L166 37L163 37M168 37L168 45L170 45L170 37L168 37M172 37L172 45L174 43L175 43L177 45L177 37L172 37M179 37L178 45C182.153 43.6215 182.106 40.8854 181 37L179 37M186 37L186 45L188 42L191 45C195.153 43.6215 195.106 40.8854 194 37L192 37L191 40L190 40L190 37L186 37M196 37L196 45L201 45C200.24 41.1637 199.952 38.3073 196 37M205 37L205 45L206 45L208 37L205 37M210 37L209 45L219 45L218 37L214 37L214 43L213 43L210 37M220 37L220 45L222 43L223 43L225 45L225 37L220 37M226 37L226 45L230 45L228 43L228 42L230 37L226 37M231 37L231 45L235 45C234.784 41.0992 235.096 38.3282 231 37M237 37L236 45C239.712 43.7721 239.683 41.6166 240 38L239 37L237 37z"/>
<path style="fill:#010101; stroke:none;" d="M2 38L2 43L7 43L7 38L2 38M39 38L39 43L44 43L44 38L39 38M144.333 40.6667L144.667 41.3333L144.333 40.6667M192.333 40.6667L192.667 41.3333L192.333 40.6667M63 41L64 42L63 41M188 42L191 45L190 42L188 42M237 42L238 43L237 42M105.333 43.6667L105.667 44.3333L105.333 43.6667M174.333 43.6667L174.667 44.3333L174.333 43.6667M222.333 43.6667L222.667 44.3333L222.333 43.6667M87 44L88 45L87 44M120 44L121 45L120 44M198 44L199 45L198 44M211 44L212 45L211 44M216 44L217 45L216 44z"/>
</svg>
